PathFileType	4	(X/Y/Z)	c:\Git\powerlifing_model_clean\simulations\HC835B\Session1\HC835B_OGR_0004\marker_experimental.trc
DataRate	CameraRate	NumFrames	NumMarkers	Units	OrigDataRate	OrigDataStartFrame	OrigNumFrames
240.000000	240.000000	5	38	mm	240.000000	135	217
Frame#	Time	RPSI			LPSI			RASI			LASI			RTH1			RTH2			RTH3			RTH4			RSK1			RSK2			RSK3			RSK4			RCAL1			RCAL2			RCAL3			RST			RPT			RTN			RFMB			RSMB			RVMB			RFMH			RSMH			RVMH			RPM			LTH1			LTH2			LTH3			LTH4			LSK1			LSK2			LSK3			LSK4			LCAL1			LCAL2			LCAL3			LFMH			LVMH			
		X1	Y1	Z1	X2	Y2	Z2	X3	Y3	Z3	X4	Y4	Z4	X5	Y5	Z5	X6	Y6	Z6	X7	Y7	Z7	X8	Y8	Z8	X9	Y9	Z9	X10	Y10	Z10	X11	Y11	Z11	X12	Y12	Z12	X13	Y13	Z13	X14	Y14	Z14	X15	Y15	Z15	X16	Y16	Z16	X17	Y17	Z17	X18	Y18	Z18	X19	Y19	Z19	X20	Y20	Z20	X21	Y21	Z21	X22	Y22	Z22	X23	Y23	Z23	X24	Y24	Z24	X25	Y25	Z25	X26	Y26	Z26	X27	Y27	Z27	X28	Y28	Z28	X29	Y29	Z29	X30	Y30	Z30	X31	Y31	Z31	X32	Y32	Z32	X33	Y33	Z33	X34	Y34	Z34	X35	Y35	Z35	X36	Y36	Z36	X37	Y37	Z37	X38	Y38	Z38	

136	0.5625	515.9160766601564	1089.413208007813	-1413.59130859375	409.6949157714845	1098.474731445313	-1414.78857421875	574.7562866210939	1003.568359375	-1614.463500976563	323.3849487304688	1009.03857421875	-1605.582397460938	654.5170288085939	748.6111450195314	-1588.942504882813	640.0303344726564	746.2910766601564	-1647.9541015625	646.2182006835939	671.7996215820314	-1623.772216796875	622.6886596679689	668.2673950195314	-1677.472290039063	616.7149658203126	552.6411743164064	-1366.089599609375	619.8619995117189	491.8353271484376	-1355.548706054688	615.0391845703126	533.6003417968751	-1310.598510742188	604.8488769531251	474.6612854003907	-1301.372314453125	556.5546264648439	583.5006713867189	-1185.88330078125	516.3969726562501	583.4487915039064	-1156.573852539063	578.5220947265626	591.9639282226564	-1142.68359375	510.5750732421876	511.8093261718751	-1154.601684570313	606.0972290039064	534.2536621093751	-1131.63525390625	529.6847534179689	455.3596801757814	-1154.292358398438	527.6796875000001	430.8642578125001	-1127.285766601563	582.2020263671876	418.2071838378907	-1137.171875	610.9764404296876	499.7525329589845	-1092.697021484375	519.0891723632814	386.927459716797	-1082.760498046875	576.2250366210939	374.9169616699219	-1083.498657226563	624.3306274414064	428.4689025878907	-1058.179931640625	565.5606079101564	321.7874450683594	-1063.761352539063	269.2589111328126	752.7012939453126	-1562.012939453125	264.9676208496094	752.0790405273439	-1622.586059570313	278.3563842773438	675.4483032226564	-1598.809936523438	289.5387573242188	677.9405517578126	-1659.485595703125	352.1854248046876	271.0191040039063	-1484.64599609375	355.7233276367188	235.6009368896485	-1525.45556640625	362.5095520019532	215.045394897461	-1480.7958984375	381.3552551269532	183.9129943847657	-1524.8662109375	434.6950988769532	90.33702850341798	-1367.275024414063	402.5747985839845	53.80519866943361	-1366.713256835938	460.9732971191407	50.618953704834	-1368.065673828125	474.6749572753907	51.00509262084962	-1593.483154296875	366.5111694335938	30.69625663757325	-1555.923583984375	
137	0.5666666666666667	515.6428222656251	1090.388671875	-1426.95166015625	409.6350708007814	1099.106323242188	-1427.924072265625	575.5974731445314	1006.338806152344	-1627.546508789063	324.1470031738282	1010.04833984375	-1618.069091796875	655.0006713867189	751.2989501953126	-1606.921752929688	640.6168212890626	750.2059936523439	-1665.94384765625	646.8509521484376	675.1939086914064	-1643.30419921875	623.4154663085939	672.7536621093751	-1697.074951171875	617.0623168945314	551.6315917968751	-1388.472045898438	619.7251586914064	490.6524047851564	-1378.927734375	615.0969238281251	531.6670532226564	-1333.284912109375	604.4041137695314	472.549285888672	-1324.932373046875	556.4966430664064	579.8969116210939	-1206.888793945313	516.0050048828126	579.1575927734376	-1177.624389648438	578.3446655273439	587.1738281250001	-1163.548095703125	510.0824279785157	507.8755187988282	-1177.348754882813	605.7565917968751	529.1500244140626	-1153.935913085938	529.1204223632814	451.008758544922	-1178.574584960938	526.8095092773439	426.1340942382814	-1151.997436523438	581.2902221679689	413.4902343750001	-1162.210815429688	610.4683837890626	493.7415466308595	-1115.798217773438	517.6865844726564	381.0506286621094	-1108.2529296875	575.1350097656251	368.8256530761719	-1109.622192382813	623.5304565429689	421.5665588378907	-1083.00732421875	564.2341308593751	315.2888793945313	-1091.176635742188	269.3060913085938	752.6069946289064	-1571.677856445313	265.4204406738282	750.8400878906251	-1632.310424804688	278.2019958496094	674.6751098632814	-1607.134033203125	289.9173889160157	675.9984741210939	-1667.6611328125	352.2799377441407	270.9819641113282	-1486.963500976563	355.9026184082032	235.2751159667969	-1527.294799804688	362.6925048828126	215.2370147705079	-1482.559936523438	381.5347595214844	183.7194213867188	-1526.202026367188	435.0340576171876	91.14828491210939	-1367.635375976563	402.9189758300782	54.66672515869142	-1366.933227539063	461.2926635742189	51.36752319335939	-1368.345581054688	474.8585815429689	50.99421691894533	-1593.693115234375	366.6544799804688	30.72570800781251	-1555.91796875	
138	0.5708333333333333	515.7622680664064	1091.844482421875	-1440.165771484375	409.792205810547	1100.132446289063	-1441.109985351563	576.4132690429689	1009.260681152344	-1640.57177734375	324.9590759277344	1011.148620605469	-1630.8779296875	655.3545532226564	754.4503784179689	-1624.77587890625	641.1114501953126	754.5142822265626	-1683.876953125	647.4191284179689	679.0744628906251	-1662.723510742188	623.9863891601564	677.6993408203126	-1716.547607421875	617.3390502929689	550.6661376953126	-1410.630859375	619.5281982421876	489.4773864746095	-1402.27734375	615.0858764648439	529.6564941406251	-1355.838500976563	603.9072875976564	470.4268798828126	-1348.582641601563	556.2315063476564	575.7645874023439	-1227.696044921875	516.0479125976564	574.8179321289064	-1198.650634765625	578.0284423828126	581.9486083984376	-1184.265869140625	509.510467529297	503.3326416015626	-1199.983764648438	605.2093505859376	523.6656494140626	-1176.002563476563	528.2661132812501	446.5473937988282	-1202.7607421875	525.9048461914064	420.9108886718751	-1176.9013671875	580.4698486328126	408.307098388672	-1187.420288085938	609.8307495117189	487.2166137695314	-1138.918823242188	516.5671386718751	374.9361877441407	-1133.940673828125	572.5489501953126	361.8430480957032	-1134.957275390625	622.4947509765626	414.1396789550782	-1107.859130859375	563.0781860351564	308.4434814453126	-1119.050048828125	269.3957519531251	752.5924682617189	-1581.047973632813	265.8954772949219	749.8663330078126	-1641.673217773438	278.2046203613282	674.0818481445314	-1614.974365234375	290.2951965332032	674.1621093750001	-1675.423828125	352.2537841796876	271.3088684082032	-1489.0322265625	355.9630126953126	235.1955261230469	-1529.20556640625	362.7669372558594	215.571762084961	-1484.10595703125	381.6135864257813	183.5059661865235	-1527.490478515625	434.9644165039064	91.99472045898439	-1368.001098632813	402.9094848632814	55.43072509765626	-1367.175415039063	461.2771911621095	52.1993865966797	-1368.57666015625	474.8827209472657	50.98651504516603	-1593.895141601563	366.7164001464844	30.69051551818848	-1555.951538085938	
139	0.575	515.7438964843751	1093.401123046875	-1453.5615234375	409.8859863281251	1101.365356445313	-1454.520263671875	576.7824707031251	1012.687622070313	-1654.250610351563	325.6470336914063	1012.469055175781	-1644.279418945313	655.6253662109376	758.0158081054689	-1642.480590820313	641.5673828125001	759.2639160156251	-1701.61083984375	647.8931274414064	683.4211425781251	-1681.985595703125	624.4862060546876	683.0598754882814	-1735.839965820313	617.5006103515626	549.6119995117189	-1432.619018554688	619.2116699218751	488.272674560547	-1425.44091796875	614.9061889648439	527.5222167968751	-1378.266479492188	603.4357910156251	468.2898559570314	-1372.3525390625	555.8376464843751	571.2927246093751	-1248.382202148438	515.6444091796876	569.7308349609376	-1219.462524414063	577.6070556640626	576.2193603515626	-1204.836791992188	508.987274169922	498.1782226562501	-1222.737915039063	604.6784057617189	517.7280883789064	-1198.222778320313	527.5647583007814	441.6241149902345	-1227.052001953125	525.0331420898439	415.3401794433595	-1201.916015625	579.4517822265626	402.8757934570314	-1212.691162109375	609.2197875976564	480.2008361816407	-1162.149169921875	515.4889526367189	368.0544433593751	-1160.035522460938	571.5324707031251	354.9045410156251	-1161.594360351563	621.6961669921876	406.368133544922	-1133.148559570313	562.0333251953126	301.1876220703126	-1147.30126953125	269.5949401855469	752.8455200195314	-1590.146118164063	266.3597717285157	748.9591064453126	-1650.650390625	278.2510070800782	673.7661743164064	-1622.632080078125	290.8052062988282	672.6730346679689	-1682.8505859375	352.0686645507813	271.9210510253907	-1491.208129882813	355.9362487792969	235.1710968017579	-1531.14453125	362.5249938964844	216.1238708496094	-1485.7734375	381.3305053710938	183.6246643066407	-1528.8291015625	434.5125732421876	92.86177062988283	-1368.352783203125	402.6967773437501	56.08231353759767	-1367.374145507813	461.0778198242189	53.25131607055665	-1368.861572265625	474.7691650390626	50.96781539916994	-1593.961791992188	366.6646423339844	30.60516548156739	-1555.98876953125	
140	0.5791666666666666	515.8255615234376	1095.199829101563	-1466.910034179688	410.0073242187501	1102.944213867188	-1467.96337890625	577.0513305664064	1015.680908203125	-1668.0244140625	325.7114257812501	1013.853515625	-1657.809814453125	655.3532104492189	762.0105590820314	-1659.957763671875	641.8920288085939	764.4428100585939	-1719.079956054688	648.3167114257814	688.1413574218751	-1701.023193359375	624.7423095703126	688.7140502929689	-1754.846069335938	617.5020141601564	548.4988403320314	-1454.41650390625	618.8696289062501	487.0397033691407	-1448.561401367188	614.0680541992189	524.8981323242189	-1400.947143554688	602.8429565429689	466.0108337402345	-1395.890991210938	555.1034545898439	566.3450317382814	-1268.921264648438	515.0755615234376	564.2388305664064	-1240.062744140625	577.3122558593751	570.1696777343751	-1225.596557617188	508.3694763183595	492.8410949707032	-1245.4228515625	604.0975341796876	511.4298706054689	-1220.46484375	526.7230224609376	436.3414611816407	-1251.365966796875	524.1093139648439	409.4066162109376	-1226.966674804688	578.5094604492189	397.0519409179689	-1238.2080078125	608.5341796875001	472.8308715820314	-1185.475708007813	515.4973754882814	361.3577575683594	-1187.412719726563	570.5512695312501	347.6937866210938	-1188.574951171875	620.8146362304689	398.1026000976564	-1158.62646484375	561.0556640625001	293.7059020996094	-1175.89892578125	269.9222717285157	753.2932128906251	-1598.930053710938	266.7950134277344	748.2094726562501	-1659.394409179688	278.5862731933594	673.6686401367189	-1629.8818359375	291.5650634765626	671.3857421875001	-1690.453369140625	351.8772277832032	272.6763305664063	-1493.1552734375	355.6260070800782	235.5388183593751	-1532.707397460938	362.2799987792969	216.9184265136719	-1487.09521484375	380.9739990234376	184.09619140625	-1529.901977539063	433.9340209960939	93.9453582763672	-1368.790405273438	402.3223876953126	56.94446945190431	-1367.64794921875	460.7535400390626	54.51683044433595	-1369.164672851563	474.5227966308595	50.78375625610353	-1593.976196289063	366.6124877929688	30.55398559570313	-1556.049194335938	
